<svg width="248" height="249" viewBox="0 0 248 249" fill="none" xmlns="http://www.w3.org/2000/svg">
<path d="M124 6.5C124 3.18629 121.312 0.484849 118.002 0.64505C89.8238 2.00892 62.8829 12.9503 41.6933 31.7552C19.0044 51.8905 4.48355 79.6443 0.878668 109.764C-2.72621 139.885 4.835 170.281 22.1314 195.202C39.4278 220.123 65.2594 237.839 94.7377 244.998C124.216 252.156 155.296 248.261 182.096 234.049C208.895 219.836 229.556 196.293 240.167 167.874C250.778 139.456 250.603 108.133 239.676 79.8344C229.471 53.4056 210.549 31.3265 186.135 17.1909C183.267 15.5305 179.64 16.6981 178.12 19.6428L177.948 19.9751C176.429 22.9198 177.594 26.5251 180.452 28.2009C202.18 40.9372 219.019 60.6872 228.133 84.2916C237.969 109.766 238.126 137.963 228.574 163.546C219.022 189.129 200.423 210.323 176.298 223.117C152.173 235.911 124.194 239.418 97.6578 232.973C71.1211 226.529 47.8673 210.581 32.2969 188.147C16.7265 165.713 9.91987 138.349 13.165 111.235C16.4102 84.1205 29.482 59.1362 49.9067 41.0102C68.8318 24.2151 92.8532 14.3877 118.002 13.0352C121.311 12.8572 124 10.1877 124 6.87403V6.5Z" fill="#4FA127" fill-opacity="0.5"/>
</svg>
