<svg width="128" height="128" viewBox="0 0 128 128" fill="none" xmlns="http://www.w3.org/2000/svg">
<rect width="128" height="128" rx="64" transform="matrix(-1 0 0 1 128 0)" fill="white"/>
<path d="M73.9007 76.7275L51.2733 54.1001C50.5002 53.327 50.5002 52.0447 51.2733 51.2716C52.0464 50.4985 53.3286 50.4985 54.1017 51.2716L76.7291 73.8991C77.5022 74.6722 77.5022 75.9544 76.7291 76.7275C75.956 77.5006 74.6738 77.5006 73.9007 76.7275Z" fill="#BE3333"/>
<path d="M51.2709 76.7275C50.4978 75.9544 50.4978 74.6722 51.2709 73.8991L73.8983 51.2716C74.6714 50.4985 75.9536 50.4985 76.7267 51.2716C77.4998 52.0447 77.4998 53.327 76.7267 54.1001L54.0993 76.7275C53.3262 77.5006 52.044 77.5006 51.2709 76.7275Z" fill="#BE3333"/>
</svg>
