<svg width="64" height="64" viewBox="0 0 64 64" fill="none" xmlns="http://www.w3.org/2000/svg">
<path d="M41.9007 44.7275L19.2733 22.1001C18.5002 21.327 18.5002 20.0447 19.2733 19.2716C20.0464 18.4985 21.3286 18.4985 22.1017 19.2716L44.7291 41.8991C45.5022 42.6722 45.5022 43.9544 44.7291 44.7275C43.956 45.5006 42.6738 45.5006 41.9007 44.7275Z" fill="#BE3333"/>
<path d="M19.2709 44.7285C18.4978 43.9554 18.4978 42.6731 19.2709 41.9L41.8983 19.2726C42.6714 18.4995 43.9536 18.4995 44.7267 19.2726C45.4998 20.0457 45.4998 21.3279 44.7267 22.101L22.0993 44.7285C21.3262 45.5016 20.044 45.5016 19.2709 44.7285Z" fill="#BE3333"/>
</svg>
