<svg width="44" height="44" viewBox="0 0 44 44" fill="none" xmlns="http://www.w3.org/2000/svg">
<path fill-rule="evenodd" clip-rule="evenodd" d="M22 44C34.15 44 44 34.15 44 22C44 9.85 34.15 0 22 0C9.85 0 0 9.85 0 22C0 34.15 9.85 44 22 44ZM12.586 31.414C12.2111 31.0389 12.0004 30.5303 12.0004 30C12.0004 29.4697 12.2111 28.9611 12.586 28.586L19.172 22L12.586 15.414C12.2217 15.0368 12.0201 14.5316 12.0247 14.0072C12.0292 13.4828 12.2395 12.9812 12.6104 12.6104C12.9812 12.2395 13.4828 12.0292 14.0072 12.0247C14.5316 12.0201 15.0368 12.2217 15.414 12.586L22 19.172L28.586 12.586C28.7705 12.395 28.9912 12.2426 29.2352 12.1378C29.4792 12.033 29.7416 11.9778 30.0072 11.9755C30.2728 11.9732 30.5361 12.0238 30.7819 12.1244C31.0277 12.2249 31.251 12.3734 31.4388 12.5612C31.6266 12.749 31.7751 12.9723 31.8756 13.2181C31.9762 13.4639 32.0268 13.7272 32.0245 13.9928C32.0222 14.2584 31.967 14.5208 31.8622 14.7648C31.7574 15.0088 31.605 15.2295 31.414 15.414L24.828 22L31.414 28.586C31.7783 28.9632 31.9799 29.4684 31.9753 29.9928C31.9708 30.5172 31.7605 31.0188 31.3896 31.3896C31.0188 31.7605 30.5172 31.9708 29.9928 31.9753C29.4684 31.9799 28.9632 31.7783 28.586 31.414L22 24.828L15.414 31.414C15.0389 31.7889 14.5303 31.9996 14 31.9996C13.4697 31.9996 12.9611 31.7889 12.586 31.414Z" fill="#4B0E0E"/>
</svg>
