<svg width="128" height="128" viewBox="0 0 128 128" fill="none" xmlns="http://www.w3.org/2000/svg">
<path d="M82.097 21.6188L80.7591 23.1054L82.097 21.6188ZM103.21 40.6209L101.873 42.1075L103.21 40.6209ZM115.489 54.1545L113.662 54.9682V54.9682L115.489 54.1545ZM16.9164 111.084L18.3306 109.67L18.3306 109.67L16.9164 111.084ZM111.086 111.084L109.672 109.67L109.672 109.67L111.086 111.084ZM74.668 115.333H53.3346V119.333H74.668V115.333ZM12.668 74.666V53.3327H8.66797V74.666H12.668ZM115.335 72.3348V74.666H119.335V72.3348H115.335ZM80.7591 23.1054L101.873 42.1075L104.548 39.1343L83.4349 20.1322L80.7591 23.1054ZM119.335 72.3348C119.335 63.1536 119.375 57.9634 117.316 53.3408L113.662 54.9682C115.294 58.6325 115.335 62.8003 115.335 72.3348H119.335ZM101.873 42.1075C108.96 48.4858 112.03 51.3039 113.662 54.9682L117.316 53.3409C115.258 48.7183 111.373 45.2763 104.548 39.1343L101.873 42.1075ZM53.4935 12.666C61.7783 12.666 65.4034 12.6969 68.6673 13.9494L70.1004 10.2149C65.9836 8.63514 61.4754 8.66602 53.4935 8.66602V12.666ZM83.4349 20.1322C77.5313 14.819 74.2168 11.7945 70.1004 10.2149L68.6673 13.9494C71.9314 15.2019 74.6322 17.5912 80.7591 23.1054L83.4349 20.1322ZM53.3346 115.333C43.2215 115.333 35.8378 115.328 30.1927 114.569C24.6051 113.818 21.0212 112.361 18.3306 109.67L15.5021 112.499C19.0599 116.056 23.6285 117.723 29.6597 118.534C35.6333 119.337 43.3345 119.333 53.3346 119.333V115.333ZM8.66797 74.666C8.66797 84.6661 8.66372 92.3674 9.46685 98.341C10.2777 104.372 11.9444 108.941 15.5021 112.499L18.3306 109.67C15.6399 106.979 14.1824 103.396 13.4312 97.808C12.6722 92.1629 12.668 84.7792 12.668 74.666H8.66797ZM74.668 119.333C84.6681 119.333 92.3693 119.337 98.3429 118.534C104.374 117.723 108.943 116.056 112.5 112.499L109.672 109.67C106.981 112.361 103.398 113.818 97.8099 114.569C92.1648 115.328 84.7811 115.333 74.668 115.333V119.333ZM115.335 74.666C115.335 84.7792 115.33 92.1629 114.571 97.808C113.82 103.396 112.363 106.979 109.672 109.67L112.5 112.499C116.058 108.941 117.725 104.372 118.536 98.341C119.339 92.3674 119.335 84.6661 119.335 74.666H115.335ZM12.668 53.3327C12.668 43.2195 12.6722 35.8358 13.4312 30.1907C14.1824 24.6031 15.6399 21.0193 18.3306 18.3286L15.5021 15.5002C11.9444 19.0579 10.2777 23.6266 9.46685 29.6577C8.66372 35.6313 8.66797 43.3326 8.66797 53.3327H12.668ZM53.4935 8.66602C43.4403 8.66602 35.7 8.6618 29.7006 9.46474C23.6452 10.2752 19.0614 11.9409 15.5021 15.5002L18.3306 18.3286C21.0197 15.6395 24.6149 14.1811 30.2312 13.4294C35.9035 12.6702 43.3276 12.666 53.4935 12.666V8.66602Z" fill="#4B0E0E"/>
<path d="M32 77.334H74.6667" stroke="#4B0E0E" stroke-width="4" stroke-linecap="round"/>
<path d="M32 96H61.3333" stroke="#4B0E0E" stroke-width="4" stroke-linecap="round"/>
<path d="M69.332 13.334V26.6673C69.332 39.2381 69.332 45.5235 73.2373 49.4287C77.1425 53.334 83.4279 53.334 95.9987 53.334H117.332" stroke="#4B0E0E" stroke-width="4"/>
</svg>
