<svg width="64" height="64" viewBox="0 0 64 64" fill="none" xmlns="http://www.w3.org/2000/svg">
<path fill-rule="evenodd" clip-rule="evenodd" d="M26.5149 3.33399L26.6654 3.33399C27.7699 3.33399 28.6654 4.22942 28.6654 5.33399C28.6654 6.43856 27.7699 7.33399 26.6654 7.33399C21.5805 7.33399 17.9681 7.33823 15.2276 7.70668C12.5447 8.06738 10.999 8.74383 9.87044 9.87239C8.74188 11.001 8.06543 12.5467 7.70472 15.2296C7.33628 17.97 7.33203 21.5825 7.33203 26.6673C7.33203 27.7719 6.4366 28.6673 5.33203 28.6673C4.22746 28.6673 3.33203 27.7719 3.33203 26.6673L3.33203 26.5169C3.33199 21.6162 3.33196 17.7345 3.74039 14.6966C4.16073 11.5701 5.04638 9.0396 7.04201 7.04397C9.03765 5.04833 11.5682 4.16269 14.6946 3.74234C17.7325 3.33391 21.6142 3.33394 26.5149 3.33399ZM48.7698 7.70668C46.0293 7.33823 42.4169 7.33399 37.332 7.33399C36.2275 7.33399 35.332 6.43856 35.332 5.33399C35.332 4.22942 36.2275 3.33399 37.332 3.33399L37.4825 3.33399C42.3832 3.33394 46.2649 3.33391 49.3028 3.74234C52.4292 4.16269 54.9597 5.04833 56.9554 7.04397C58.951 9.0396 59.8367 11.5701 60.257 14.6966C60.6654 17.7345 60.6654 21.6162 60.6654 26.5169V26.6673C60.6654 27.7719 59.7699 28.6673 58.6654 28.6673C57.5608 28.6673 56.6654 27.7719 56.6654 26.6673C56.6654 21.5825 56.6611 17.97 56.2927 15.2296C55.932 12.5467 55.2555 11.001 54.127 9.87239C52.9984 8.74383 51.4527 8.06738 48.7698 7.70668ZM5.33203 35.334C6.4366 35.334 7.33203 36.2294 7.33203 37.334C7.33203 42.4188 7.33628 46.0313 7.70472 48.7717C8.06543 51.4546 8.74188 53.0004 9.87044 54.1289C10.999 55.2575 12.5447 55.9339 15.2276 56.2946C17.9681 56.6631 21.5805 56.6673 26.6654 56.6673C27.7699 56.6673 28.6654 57.5628 28.6654 58.6673C28.6654 59.7719 27.7699 60.6673 26.6654 60.6673H26.5149C21.6142 60.6674 17.7325 60.6674 14.6946 60.259C11.5682 59.8386 9.03765 58.953 7.04201 56.9573C5.04638 54.9617 4.16073 52.4312 3.74039 49.3047C3.33196 46.2668 3.33199 42.3851 3.33203 37.4844L3.33203 37.334C3.33203 36.2294 4.22746 35.334 5.33203 35.334ZM58.6654 35.334C59.7699 35.334 60.6654 36.2294 60.6654 37.334V37.4844C60.6654 42.3851 60.6654 46.2668 60.257 49.3047C59.8367 52.4312 58.951 54.9617 56.9554 56.9573C54.9597 58.953 52.4292 59.8386 49.3028 60.259C46.2649 60.6674 42.3832 60.6674 37.4825 60.6673H37.332C36.2275 60.6673 35.332 59.7719 35.332 58.6673C35.332 57.5628 36.2275 56.6673 37.332 56.6673C42.4169 56.6673 46.0293 56.6631 48.7698 56.2946C51.4527 55.9339 52.9984 55.2575 54.127 54.1289C55.2555 53.0004 55.932 51.4546 56.2927 48.7717C56.6611 46.0313 56.6654 42.4188 56.6654 37.334C56.6654 36.2294 57.5608 35.334 58.6654 35.334Z" fill="white"/>
</svg>
