<svg width="38" height="42" viewBox="0 0 38 42" fill="none" xmlns="http://www.w3.org/2000/svg">
<path d="M1.00193 21.0835H10.2754V32.095C10.2754 32.6472 10.7231 33.095 11.2754 33.095H26.7265C27.279 33.095 27.7265 32.6472 27.7265 32.095V21.0835H37.0002C37.8835 21.0835 38.333 20.0222 37.7185 19.3878L19.7195 0.80423C19.3266 0.39859 18.6758 0.39859 18.2829 0.80423L0.283672 19.3878C-0.33083 20.0222 0.118877 21.0835 1.00193 21.0835Z" fill="#4B0E0E"/>
<path d="M11.2754 37.4973C10.7231 37.4973 10.2754 37.9451 10.2754 38.4973V40.4995C10.2754 41.0519 10.7231 41.4995 11.2754 41.4995H26.7265C27.279 41.4995 27.7265 41.0519 27.7265 40.4995V38.4973C27.7265 37.9451 27.279 37.4973 26.7265 37.4973H11.2754Z" fill="#4B0E0E"/>
</svg>
