<svg width="88" height="88" viewBox="0 0 88 88" fill="none" xmlns="http://www.w3.org/2000/svg">
<rect width="88" height="88" rx="44" fill="#BE3333" fill-opacity="0.6"/>
<path d="M52.3257 33.6742C58.7752 38.0586 62 40.2508 62 44.0002C62 47.7496 58.7752 49.9418 52.3257 54.3261C50.5452 55.5365 48.7794 56.676 47.1567 57.6256C45.7331 58.4586 44.1208 59.3203 42.4516 60.1662C36.0172 63.4269 32.8 65.0572 29.9145 63.2522C27.029 61.4471 26.7668 57.6684 26.2423 50.1109C26.094 47.9737 26 45.8785 26 44.0002C26 42.1219 26.094 40.0267 26.2423 37.8894C26.7668 30.3319 27.029 26.5532 29.9145 24.7482C32.8 22.9431 36.0172 24.5734 42.4516 27.8341C44.1208 28.68 45.7331 29.5417 47.1567 30.3748C48.7794 31.3243 50.5452 32.4639 52.3257 33.6742Z" fill="white"/>
</svg>
