<svg width="64" height="64" viewBox="0 0 64 64" fill="none" xmlns="http://www.w3.org/2000/svg">
<path d="M31.9987 3.3335H31.8457C25.69 3.33346 20.8659 3.33344 17.1019 3.83949C13.2493 4.35746 10.2092 5.43837 7.82306 7.82453C5.4369 10.2107 4.35599 13.2507 3.83802 17.1034C3.33197 20.8673 3.332 25.6914 3.33203 31.8472V32.1532C3.332 38.3089 3.33197 43.133 3.83802 46.8969C4.35599 50.7496 5.4369 53.7896 7.82306 56.1758C10.2092 58.562 13.2493 59.6429 17.1019 60.1608C20.8659 60.6669 25.69 60.6669 31.8457 60.6668H32.1517C38.3074 60.6669 43.1315 60.6669 46.8955 60.1608C50.7481 59.6429 53.7882 58.562 56.1743 56.1758C58.5605 53.7896 59.6414 50.7496 60.1594 46.8969C60.6654 43.133 60.6654 38.3089 60.6654 32.1532V32.0002C60.6654 30.8956 59.7699 30.0002 58.6654 30.0002C57.5608 30.0002 56.6654 30.8956 56.6654 32.0002C56.6654 38.3421 56.6611 42.8974 56.195 46.364C55.7367 49.773 54.865 51.8283 53.3459 53.3474C51.8268 54.8665 49.7716 55.7382 46.3625 56.1965C42.8959 56.6626 38.3406 56.6668 31.9987 56.6668C25.6568 56.6668 21.1015 56.6626 17.6349 56.1965C14.2258 55.7382 12.1706 54.8665 10.6515 53.3474C9.13241 51.8283 8.26069 49.773 7.80235 46.364C7.33628 42.8974 7.33203 38.3421 7.33203 32.0002C7.33203 25.6582 7.33628 21.103 7.80235 17.6364C8.26069 14.2273 9.13241 12.172 10.6515 10.653C12.1706 9.13387 14.2258 8.26216 17.6349 7.80382C21.1015 7.33775 25.6568 7.3335 31.9987 7.3335C33.1033 7.3335 33.9987 6.43807 33.9987 5.3335C33.9987 4.22893 33.1033 3.3335 31.9987 3.3335Z" fill="white"/>
<path d="M33.2512 27.9193C32.4701 28.7003 32.4701 29.9667 33.2512 30.7477C34.0322 31.5288 35.2985 31.5288 36.0796 30.7477L56.6654 10.1619V19.5835C56.6654 20.6881 57.5608 21.5835 58.6654 21.5835C59.7699 21.5835 60.6654 20.6881 60.6654 19.5835V5.3335C60.6654 4.22893 59.7699 3.3335 58.6654 3.3335H44.4154C43.3108 3.3335 42.4154 4.22893 42.4154 5.3335C42.4154 6.43807 43.3108 7.3335 44.4154 7.3335H53.8369L33.2512 27.9193Z" fill="white"/>
</svg>
