<svg width="58" height="58" viewBox="0 0 58 58" fill="none" xmlns="http://www.w3.org/2000/svg">
<path fill-rule="evenodd" clip-rule="evenodd" d="M27.6654 4.33337C14.7787 4.33337 4.33203 14.7801 4.33203 27.6667C4.33203 40.5534 14.7787 51 27.6654 51C40.552 51 50.9987 40.5534 50.9987 27.6667C50.9987 14.7801 40.552 4.33337 27.6654 4.33337ZM0.332031 27.6667C0.332031 12.5709 12.5696 0.333374 27.6654 0.333374C42.7611 0.333374 54.9987 12.5709 54.9987 27.6667C54.9987 34.4947 52.495 40.738 48.3557 45.5286L57.0796 54.2525C57.8606 55.0335 57.8606 56.2999 57.0796 57.0809C56.2985 57.862 55.0322 57.862 54.2512 57.0809L45.5272 48.357C40.7367 52.4964 34.4934 55 27.6654 55C12.5696 55 0.332031 42.7625 0.332031 27.6667Z" fill="#4B0E0E"/>
</svg>
