<svg width="54" height="54" viewBox="0 0 54 54" fill="none" xmlns="http://www.w3.org/2000/svg">
<path d="M0.332031 11.0007C0.332031 5.97234 0.332031 3.45818 1.89413 1.89608C3.45623 0.333984 5.97038 0.333984 10.9987 0.333984C16.027 0.333984 18.5412 0.333984 20.1033 1.89608C21.6654 3.45818 21.6654 5.97234 21.6654 11.0007V43.0007C21.6654 48.029 21.6654 50.5431 20.1033 52.1052C18.5412 53.6673 16.027 53.6673 10.9987 53.6673C5.97038 53.6673 3.45623 53.6673 1.89413 52.1052C0.332031 50.5431 0.332031 48.029 0.332031 43.0007V11.0007Z" fill="white"/>
<path d="M32.332 11.0007C32.332 5.97234 32.332 3.45818 33.8941 1.89608C35.4562 0.333984 37.9704 0.333984 42.9987 0.333984C48.027 0.333984 50.5412 0.333984 52.1033 1.89608C53.6654 3.45818 53.6654 5.97234 53.6654 11.0007V43.0007C53.6654 48.029 53.6654 50.5431 52.1033 52.1052C50.5412 53.6673 48.027 53.6673 42.9987 53.6673C37.9704 53.6673 35.4562 53.6673 33.8941 52.1052C32.332 50.5431 32.332 48.029 32.332 43.0007V11.0007Z" fill="white"/>
</svg>
