<svg width="64" height="64" viewBox="0 0 64 64" fill="none" xmlns="http://www.w3.org/2000/svg">
<path d="M5.33203 16.0007C5.33203 10.9723 5.33203 8.45818 6.89413 6.89608C8.45623 5.33398 10.9704 5.33398 15.9987 5.33398C21.027 5.33398 23.5412 5.33398 25.1033 6.89608C26.6654 8.45818 26.6654 10.9723 26.6654 16.0007V48.0007C26.6654 53.029 26.6654 55.5431 25.1033 57.1052C23.5412 58.6673 21.027 58.6673 15.9987 58.6673C10.9704 58.6673 8.45623 58.6673 6.89413 57.1052C5.33203 55.5431 5.33203 53.029 5.33203 48.0007V16.0007Z" fill="white"/>
<path d="M37.332 16.0007C37.332 10.9723 37.332 8.45818 38.8941 6.89608C40.4562 5.33398 42.9704 5.33398 47.9987 5.33398C53.027 5.33398 55.5412 5.33398 57.1033 6.89608C58.6654 8.45818 58.6654 10.9723 58.6654 16.0007V48.0007C58.6654 53.029 58.6654 55.5431 57.1033 57.1052C55.5412 58.6673 53.027 58.6673 47.9987 58.6673C42.9704 58.6673 40.4562 58.6673 38.8941 57.1052C37.332 55.5431 37.332 53.029 37.332 48.0007V16.0007Z" fill="white"/>
</svg>
