<svg width="64" height="64" viewBox="0 0 64 64" fill="none" xmlns="http://www.w3.org/2000/svg">
<path fill-rule="evenodd" clip-rule="evenodd" d="M37.3335 3.3335C38.4381 3.3335 39.3335 4.22893 39.3335 5.3335C39.3335 10.4184 39.3377 14.0308 39.7062 16.7712C40.0669 19.4541 40.7433 20.9999 41.8719 22.1284C43.0005 23.257 44.5462 23.9334 47.2291 24.2941C49.9695 24.6626 53.582 24.6668 58.6668 24.6668C59.7714 24.6668 60.6668 25.5623 60.6668 26.6668C60.6668 27.7714 59.7714 28.6668 58.6668 28.6668H58.5164C53.6157 28.6669 49.734 28.6669 46.6961 28.2585C43.5696 27.8381 41.0391 26.9525 39.0435 24.9568C37.0478 22.9612 36.1622 20.4307 35.7419 17.3042C35.3334 14.2663 35.3335 10.3846 35.3335 5.48392V5.3335C35.3335 4.22893 36.2289 3.3335 37.3335 3.3335ZM26.6668 3.3335C27.7714 3.3335 28.6668 4.22893 28.6668 5.3335V5.48393C28.6669 10.3846 28.6669 14.2663 28.2585 17.3042C27.8381 20.4307 26.9525 22.9612 24.9568 24.9568C22.9612 26.9525 20.4307 27.8381 17.3042 28.2585C14.2663 28.6669 10.3846 28.6669 5.48393 28.6668H5.3335C4.22893 28.6668 3.3335 27.7714 3.3335 26.6668C3.3335 25.5623 4.22893 24.6668 5.3335 24.6668C10.4184 24.6668 14.0308 24.6626 16.7712 24.2941C19.4541 23.9334 20.9999 23.257 22.1284 22.1284C23.257 20.9999 23.9334 19.4541 24.2941 16.7712C24.6626 14.0308 24.6668 10.4184 24.6668 5.3335C24.6668 4.22893 25.5623 3.3335 26.6668 3.3335ZM3.3335 37.3335C3.3335 36.2289 4.22893 35.3335 5.3335 35.3335H5.48392C10.3846 35.3335 14.2663 35.3334 17.3042 35.7419C20.4307 36.1622 22.9612 37.0478 24.9568 39.0435C26.9525 41.0391 27.8381 43.5696 28.2585 46.6961C28.6669 49.734 28.6669 53.6157 28.6668 58.5164V58.6668C28.6668 59.7714 27.7714 60.6668 26.6668 60.6668C25.5623 60.6668 24.6668 59.7714 24.6668 58.6668C24.6668 53.582 24.6626 49.9695 24.2941 47.2291C23.9334 44.5462 23.257 43.0005 22.1284 41.8719C20.9999 40.7433 19.4541 40.0669 16.7712 39.7062C14.0308 39.3377 10.4184 39.3335 5.3335 39.3335C4.22893 39.3335 3.3335 38.4381 3.3335 37.3335ZM58.5164 35.3335H58.6668C59.7714 35.3335 60.6668 36.2289 60.6668 37.3335C60.6668 38.4381 59.7714 39.3335 58.6668 39.3335C53.582 39.3335 49.9695 39.3377 47.2291 39.7062C44.5462 40.0669 43.0005 40.7433 41.8719 41.8719C40.7433 43.0005 40.0669 44.5462 39.7062 47.2291C39.3377 49.9695 39.3335 53.582 39.3335 58.6668C39.3335 59.7714 38.4381 60.6668 37.3335 60.6668C36.2289 60.6668 35.3335 59.7714 35.3335 58.6668V58.5164C35.3335 53.6157 35.3334 49.734 35.7419 46.6961C36.1622 43.5696 37.0478 41.0391 39.0435 39.0435C41.0391 37.0478 43.5696 36.1622 46.6961 35.7419C49.734 35.3334 53.6157 35.3335 58.5164 35.3335Z" fill="white"/>
</svg>
