<svg width="64" height="64" viewBox="0 0 64 64" fill="none" xmlns="http://www.w3.org/2000/svg">
<path fill-rule="evenodd" clip-rule="evenodd" d="M60.0809 3.91928C60.8619 4.70033 60.8619 5.96666 60.0809 6.74771L6.74755 60.0811C5.9665 60.8621 4.70017 60.8621 3.91912 60.0811C3.13807 59.3 3.13807 58.0337 3.91912 57.2526L13.8432 47.3285C11.4881 47.3032 9.69468 47.1626 8.06655 46.4093C6.21375 45.5521 4.43044 43.8741 3.46208 42.0769C2.4151 40.1338 2.29225 38.1017 2.11757 35.2122C2.11064 35.0976 2.10363 34.9817 2.09648 34.8643C2.03662 33.8823 2 32.9111 2 32.0002C2 31.0894 2.03662 30.1182 2.09648 29.1362C2.10363 29.0188 2.11064 28.9029 2.11757 28.7883C2.29225 25.8988 2.4151 23.8667 3.46208 21.9236C4.43044 20.1264 6.21375 18.4484 8.06655 17.5912C10.0709 16.6639 12.3257 16.6651 15.5708 16.6668C15.7121 16.6668 15.8552 16.6669 16.0002 16.6669C17.4309 16.6669 17.9188 16.6605 18.3768 16.5832C18.8672 16.5003 19.3454 16.3569 19.8003 16.1561C20.2253 15.9686 20.6362 15.7053 21.8306 14.9178L22.542 14.4488C25.8243 12.2845 28.4566 10.5489 30.6262 9.49497C32.8289 8.42492 34.9976 7.82977 37.1794 8.57432C37.9044 8.82173 38.6024 9.1769 39.2292 9.61738C40.9342 10.8157 41.7471 12.6438 42.2053 14.7462C42.4389 15.8187 42.5989 17.0544 42.7213 18.4505L57.2525 3.91928C58.0335 3.13823 59.2998 3.13823 60.0809 3.91928ZM38.9611 22.2107C38.8074 19.2747 38.6372 17.1593 38.297 15.5978C37.9345 13.9343 37.4516 13.2571 36.9292 12.89C36.6125 12.6674 36.2539 12.485 35.8876 12.36C35.2231 12.1332 34.2734 12.1702 32.374 13.0929C30.4693 14.0182 28.0557 15.6045 24.6163 17.8723L24.0324 18.2573C23.988 18.2865 23.9442 18.3155 23.9009 18.344C22.8871 19.0128 22.1848 19.476 21.4154 19.8156C20.6571 20.1502 19.8602 20.3893 19.0429 20.5273C18.2136 20.6674 17.3724 20.6672 16.1578 20.6669C16.106 20.6669 16.0534 20.6669 16.0002 20.6669C12.1504 20.6669 10.851 20.7103 9.74615 21.2215C8.67852 21.7154 7.54145 22.7853 6.98346 23.8209C6.40139 24.9012 6.29454 26.0084 6.08907 29.3795C6.03267 30.3048 6 31.1917 6 32.0002C6 32.8088 6.03267 33.6957 6.08907 34.621C6.29454 37.9921 6.40139 39.0993 6.98346 40.1796C7.54145 41.2152 8.67852 42.2851 9.74615 42.779C10.851 43.2902 12.1504 43.3336 16.0002 43.3336C16.0534 43.3336 16.106 43.3336 16.1578 43.3336C16.7971 43.3334 17.3329 43.3333 17.8181 43.3537L38.9611 22.2107ZM54.0386 16.8439C55.0454 16.3896 56.2299 16.8376 56.6841 17.8444C57.9296 20.6048 59.3333 25.2257 59.3333 32.0002C59.3333 37.8443 58.2886 42.0878 57.2 44.9181C56.6567 46.3309 56.105 47.3846 55.6733 48.1042C55.4576 48.4638 55.272 48.7395 55.1327 48.9345C55.063 49.032 55.005 49.1093 54.9605 49.1669C54.9382 49.1956 54.9194 49.2195 54.9042 49.2384L54.8841 49.2631L54.8762 49.2727L54.8728 49.2769C54.8721 49.2778 54.8698 49.2805 53.3333 48.0002L54.8698 49.2805C54.1627 50.1291 52.9015 50.2437 52.053 49.5366C51.2085 48.8329 51.0909 47.5804 51.7868 46.732C51.7884 46.73 51.7915 46.726 51.796 46.7202C51.8102 46.7019 51.838 46.6652 51.8777 46.6096C51.9572 46.4983 52.0841 46.3116 52.2433 46.0462C52.5616 45.5157 53.01 44.6695 53.4666 43.4822C54.3781 41.1125 55.3333 37.356 55.3333 32.0002C55.3333 25.7966 54.0517 21.7361 53.038 19.4895C52.5838 18.4826 53.0317 17.2982 54.0386 16.8439ZM48.4373 24.7086C49.5189 24.4841 50.5776 25.1788 50.8021 26.2603C51.0958 27.6749 51.3333 29.5707 51.3333 32.0002C51.3333 34.9605 50.9807 37.1277 50.604 38.5969C50.4158 39.3308 50.2223 39.888 50.0653 40.2804C49.9868 40.4766 49.9176 40.6312 49.863 40.746C49.8357 40.8033 49.812 40.8507 49.7927 40.8882L49.767 40.9371L49.7568 40.9561L49.7523 40.9642L49.7503 40.968C49.7498 40.9688 49.7483 40.9714 48.0736 40.0411L49.7483 40.9715C49.2119 41.937 47.9943 42.2849 47.0287 41.7485C46.0713 41.2166 45.7212 40.0151 46.2382 39.0535L46.2516 39.0262C46.2699 38.9878 46.3048 38.9113 46.3514 38.7949C46.4444 38.5623 46.5842 38.1695 46.7293 37.6034C47.0193 36.4726 47.3333 34.6399 47.3333 32.0002C47.3333 29.8329 47.1216 28.21 46.8857 27.0734C46.6611 25.9919 47.3558 24.9331 48.4373 24.7086ZM41.3333 30.0002C42.4379 30.0002 43.3333 30.8957 43.3333 32.0002C43.3333 33.4722 43.2366 36.0675 43.0984 39.0408L43.0913 39.1941C42.9105 43.0872 42.7653 46.2124 42.3407 48.5707C41.909 50.9692 41.112 53.0599 39.2292 54.3831C38.6024 54.8236 37.9044 55.1788 37.1794 55.4262C35.2007 56.1014 33.2339 55.6731 31.2545 54.7975C29.2999 53.9329 27.0072 52.4823 24.2371 50.6671C23.3133 50.0617 23.0551 48.8219 23.6605 47.8981C24.2659 46.9742 25.5057 46.716 26.4295 47.3214C29.2529 49.1715 31.2704 50.4307 32.8726 51.1394C34.45 51.8371 35.2865 51.8456 35.8876 51.6405C36.2539 51.5155 36.6125 51.3331 36.9292 51.1105C37.5069 50.7045 38.0337 49.919 38.404 47.862C38.776 45.7956 38.9131 42.9371 39.1027 38.8551C39.2415 35.8696 39.3333 33.365 39.3333 32.0002C39.3333 30.8957 40.2288 30.0002 41.3333 30.0002Z" fill="white"/>
</svg>
