<svg width="48" height="54" viewBox="0 0 48 54" fill="none" xmlns="http://www.w3.org/2000/svg">
<path d="M35.1009 13.2329C43.7003 19.0787 48 22.0017 48 27.0009C48 32.0001 43.7003 34.923 35.1009 40.7688C32.727 42.3826 30.3725 43.902 28.2089 45.1681C26.3108 46.2788 24.1611 47.4278 21.9355 48.5556C13.3562 52.9032 9.06663 55.0769 5.21932 52.6702C1.37201 50.2635 1.02235 45.2252 0.323049 35.1485C0.125285 32.2989 3.01975e-08 29.5053 0 27.0009C-3.01976e-08 24.4965 0.125286 21.7029 0.32305 18.8532C1.02236 8.77657 1.37201 3.73826 5.21932 1.33153C9.06663 -1.07521 13.3562 1.09857 21.9355 5.44614C24.1611 6.57398 26.3108 7.72293 28.2089 8.83366C30.3725 10.0997 32.727 11.6191 35.1009 13.2329Z" fill="white"/>
</svg>
