<svg width="58" height="58" viewBox="0 0 58 58" fill="none" xmlns="http://www.w3.org/2000/svg">
<path d="M28.9987 0.333985H28.8457C22.69 0.333951 17.8659 0.333923 14.1019 0.839975C10.2493 1.35795 7.20922 2.43886 4.82306 4.82502C2.4369 7.21117 1.35599 10.2512 0.838022 14.1039C0.33197 17.8678 0.331997 22.6919 0.332032 28.8476V29.1537C0.331997 35.3094 0.33197 40.1335 0.838022 43.8974C1.35599 47.7501 2.4369 50.7901 4.82306 53.1763C7.20922 55.5625 10.2493 56.6434 14.1019 57.1613C17.8659 57.6674 22.69 57.6674 28.8457 57.6673H29.1517C35.3074 57.6674 40.1315 57.6674 43.8955 57.1613C47.7481 56.6434 50.7882 55.5625 53.1743 53.1763C55.5605 50.7901 56.6414 47.7501 57.1594 43.8974C57.6654 40.1335 57.6654 35.3094 57.6654 29.1536V29.0007C57.6654 27.8961 56.7699 27.0007 55.6654 27.0007C54.5608 27.0007 53.6654 27.8961 53.6654 29.0007C53.6654 35.3426 53.6611 39.8978 53.195 43.3644C52.7367 46.7735 51.865 48.8288 50.3459 50.3479C48.8268 51.8669 46.7716 52.7387 43.3625 53.197C39.8959 53.6631 35.3406 53.6673 28.9987 53.6673C22.6568 53.6673 18.1015 53.6631 14.6349 53.197C11.2258 52.7387 9.17057 51.8669 7.65149 50.3479C6.13241 48.8288 5.26069 46.7735 4.80235 43.3644C4.33628 39.8978 4.33203 35.3426 4.33203 29.0007C4.33203 22.6587 4.33628 18.1035 4.80235 14.6369C5.26069 11.2278 6.13241 9.17253 7.65149 7.65344C9.17057 6.13436 11.2258 5.26264 14.6349 4.80431C18.1015 4.33823 22.6568 4.33399 28.9987 4.33399C30.1033 4.33399 30.9987 3.43856 30.9987 2.33399C30.9987 1.22942 30.1033 0.333985 28.9987 0.333985Z" fill="#BE3333"/>
<path d="M30.2512 24.9198C29.4701 25.7008 29.4701 26.9672 30.2512 27.7482C31.0322 28.5292 32.2985 28.5292 33.0796 27.7482L53.6654 7.16241V16.584C53.6654 17.6886 54.5608 18.584 55.6654 18.584C56.7699 18.584 57.6654 17.6886 57.6654 16.584V2.33399C57.6654 1.22942 56.7699 0.333985 55.6654 0.333985H41.4154C40.3108 0.333985 39.4154 1.22942 39.4154 2.33399C39.4154 3.43855 40.3108 4.33399 41.4154 4.33399H50.8369L30.2512 24.9198Z" fill="#BE3333"/>
</svg>
